<svg xmlns="http://www.w3.org/2000/svg" xmlns:xlink="http://www.w3.org/1999/xlink" version="1.1" width="24" height="24" viewBox="0 0 1000 1000" xml:space="preserve">
<defs>
</defs>
<rect x="0" y="0" width="100%" height="100%" fill="rgba(255,255,255,0)"/>
<g transform="matrix(-7.3983 0 0 -7.3983 499.9981 499.9976)" id="217981">
<path style="stroke: none; stroke-width: 1; stroke-dasharray: none; stroke-linecap: butt; stroke-dashoffset: 0; stroke-linejoin: miter; stroke-miterlimit: 4; is-custom-font: none; font-file-url: none; fill: #c1c1c1; fill-rule: nonzero; opacity: 1;" vector-effect="non-scaling-stroke" transform=" translate(-47.0257, -61.4395)" d="M 1.926 110.623 c -2.618 2.692 -2.56 6.995 0.134 9.618 c 2.69 2.618 6.995 2.558 9.613 -0.137 L 64.186 65.95 l -4.875 -4.737 l 4.896 4.747 c 2.623 -2.705 2.56 -7.024 -0.146 -9.644 c -0.081 -0.076 -0.159 -0.148 -0.24 -0.22 L 11.674 2.774 C 9.056 0.081 4.75 0.02 2.06 2.637 c -2.693 2.623 -2.752 6.925 -0.134 9.618 l 47.896 48.978 L 1.926 110.623 L 1.926 110.623 L 1.926 110.623 z M 81.401 6.325 C 81.401 2.832 84.233 0 87.726 0 s 6.325 2.832 6.325 6.325 v 110.229 c 0 3.493 -2.832 6.325 -6.325 6.325 s -6.325 -2.832 -6.325 -6.325 V 6.325 L 81.401 6.325 z" stroke-linecap="round"/>
</g>
</svg>