<svg xmlns="http://www.w3.org/2000/svg" xmlns:xlink="http://www.w3.org/1999/xlink" version="1.1" width="24" height="24" viewBox="0 0 1000 1000" xml:space="preserve">
<defs>
</defs>
<rect x="0" y="0" width="100%" height="100%" fill="rgba(255,255,255,0)"/>
<g transform="matrix(7.3984 0 0 7.3984 499.9994 499.9989)" id="612665">
<path style="stroke: none; stroke-width: 1; stroke-dasharray: none; stroke-linecap: butt; stroke-dashoffset: 0; stroke-linejoin: miter; stroke-miterlimit: 4; is-custom-font: none; font-file-url: none; fill: #c1c1c1; fill-rule: nonzero; opacity: 1;" vector-effect="non-scaling-stroke" transform=" translate(-33.4538, -61.44)" d="M 1.95 111.2 c -2.65 2.72 -2.59 7.08 0.14 9.73 c 2.72 2.65 7.08 2.59 9.73 -0.14 L 64.94 66 l -4.93 -4.79 l 4.95 4.8 c 2.65 -2.74 2.59 -7.11 -0.15 -9.76 c -0.08 -0.08 -0.16 -0.15 -0.24 -0.22 L 11.81 2.09 c -2.65 -2.73 -7 -2.79 -9.73 -0.14 C -0.64 4.6 -0.7 8.95 1.95 11.68 l 48.46 49.55 L 1.95 111.2 L 1.95 111.2 L 1.95 111.2 z" stroke-linecap="round"/>
</g>
</svg>